<svg id="visualizer" width="2000" height="400" xmlns="http://www.w3.org/2000/svg">
    <ellipse rx="1" cy="200" stroke-width="10" stroke="#ffffff" id="svg_001" cx="10"   ry="20"  />
    <ellipse rx="1" cy="200" stroke-width="10" stroke="#ffffff" id="svg_002" cx="30"   ry="60"  />
    <ellipse rx="1" cy="200" stroke-width="10" stroke="#ffffff" id="svg_003" cx="50"   ry="100" />
    <ellipse rx="1" cy="200" stroke-width="10" stroke="#ffffff" id="svg_004" cx="70"   ry="140" />
    <ellipse rx="1" cy="200" stroke-width="10" stroke="#ffffff" id="svg_005" cx="90"   ry="60"  />
    <ellipse rx="1" cy="200" stroke-width="10" stroke="#ffffff" id="svg_006" cx="110"  ry="140" />
    <ellipse rx="1" cy="200" stroke-width="10" stroke="#ffffff" id="svg_007" cx="130"  ry="180" />
    <ellipse rx="1" cy="200" stroke-width="10" stroke="#ffffff" id="svg_008" cx="150"  ry="100" />
    <ellipse rx="1" cy="200" stroke-width="10" stroke="#ffffff" id="svg_009" cx="170"  ry="140" />
    <ellipse rx="1" cy="200" stroke-width="10" stroke="#ffffff" id="svg_010" cx="190"  ry="60"  />
    <ellipse rx="1" cy="200" stroke-width="10" stroke="#ffffff" id="svg_011" cx="210"  ry="120" />
    <ellipse rx="1" cy="200" stroke-width="10" stroke="#ffffff" id="svg_012" cx="230"  ry="80"  />
    <ellipse rx="1" cy="200" stroke-width="10" stroke="#ffffff" id="svg_013" cx="250"  ry="100" />
    <ellipse rx="1" cy="200" stroke-width="10" stroke="#ffffff" id="svg_014" cx="270"  ry="140" />
    <ellipse rx="1" cy="200" stroke-width="10" stroke="#ffffff" id="svg_015" cx="290"  ry="100" />
    <ellipse rx="1" cy="200" stroke-width="10" stroke="#ffffff" id="svg_016" cx="310"  ry="60"  />
    <ellipse rx="1" cy="200" stroke-width="10" stroke="#ffffff" id="svg_017" cx="330"  ry="100" />
    <ellipse rx="1" cy="200" stroke-width="10" stroke="#ffffff" id="svg_018" cx="350"  ry="40"  />
    <ellipse rx="1" cy="200" stroke-width="10" stroke="#ffffff" id="svg_019" cx="370"  ry="100" />
    <ellipse rx="1" cy="200" stroke-width="10" stroke="#ffffff" id="svg_020" cx="390"  ry="140" />
    <ellipse rx="1" cy="200" stroke-width="10" stroke="#ffffff" id="svg_021" cx="410"  ry="180" />
    <ellipse rx="1" cy="200" stroke-width="10" stroke="#ffffff" id="svg_022" cx="430"  ry="140" />
    <ellipse rx="1" cy="200" stroke-width="10" stroke="#ffffff" id="svg_023" cx="450"  ry="160" />
    <ellipse rx="1" cy="200" stroke-width="10" stroke="#ffffff" id="svg_024" cx="470"  ry="60"  />
    <ellipse rx="1" cy="200" stroke-width="10" stroke="#ffffff" id="svg_025" cx="490"  ry="120" />
    <ellipse rx="1" cy="200" stroke-width="10" stroke="#ffffff" id="svg_026" cx="510"  ry="60"  />
    <ellipse rx="1" cy="200" stroke-width="10" stroke="#ffffff" id="svg_027" cx="530"  ry="100" />
    <ellipse rx="1" cy="200" stroke-width="10" stroke="#ffffff" id="svg_028" cx="550"  ry="140" />
    <ellipse rx="1" cy="200" stroke-width="10" stroke="#ffffff" id="svg_029" cx="570"  ry="80"  />
    <ellipse rx="1" cy="200" stroke-width="10" stroke="#ffffff" id="svg_030" cx="590"  ry="100" />
    <ellipse rx="1" cy="200" stroke-width="10" stroke="#ffffff" id="svg_031" cx="610"  ry="80"  />
    <ellipse rx="1" cy="200" stroke-width="10" stroke="#ffffff" id="svg_032" cx="630"  ry="60"  />
    <ellipse rx="1" cy="200" stroke-width="10" stroke="#ffffff" id="svg_033" cx="650"  ry="100" />
    <ellipse rx="1" cy="200" stroke-width="10" stroke="#ffffff" id="svg_034" cx="670"  ry="140" />
    <ellipse rx="1" cy="200" stroke-width="10" stroke="#ffffff" id="svg_035" cx="690"  ry="60"  />
    <ellipse rx="1" cy="200" stroke-width="10" stroke="#ffffff" id="svg_036" cx="710"  ry="140" />
    <ellipse rx="1" cy="200" stroke-width="10" stroke="#ffffff" id="svg_037" cx="730"  ry="180" />
    <ellipse rx="1" cy="200" stroke-width="10" stroke="#ffffff" id="svg_038" cx="750"  ry="100" />
    <ellipse rx="1" cy="200" stroke-width="10" stroke="#ffffff" id="svg_039" cx="770"  ry="140" />
    <ellipse rx="1" cy="200" stroke-width="10" stroke="#ffffff" id="svg_040" cx="790"  ry="60"  />
    <ellipse rx="1" cy="200" stroke-width="10" stroke="#ffffff" id="svg_041" cx="810"  ry="120" />
    <ellipse rx="1" cy="200" stroke-width="10" stroke="#ffffff" id="svg_042" cx="830"  ry="80"  />
    <ellipse rx="1" cy="200" stroke-width="10" stroke="#ffffff" id="svg_043" cx="850"  ry="100" />
    <ellipse rx="1" cy="200" stroke-width="10" stroke="#ffffff" id="svg_044" cx="870"  ry="140" />
    <ellipse rx="1" cy="200" stroke-width="10" stroke="#ffffff" id="svg_045" cx="890"  ry="100" />
    <ellipse rx="1" cy="200" stroke-width="10" stroke="#ffffff" id="svg_046" cx="910"  ry="60"  />
    <ellipse rx="1" cy="200" stroke-width="10" stroke="#ffffff" id="svg_047" cx="930"  ry="100" />
    <ellipse rx="1" cy="200" stroke-width="10" stroke="#ffffff" id="svg_048" cx="950"  ry="40"  />
    <ellipse rx="1" cy="200" stroke-width="10" stroke="#ffffff" id="svg_049" cx="970"  ry="100" />
    <ellipse rx="1" cy="200" stroke-width="10" stroke="#ffffff" id="svg_050" cx="990"  ry="180" />
    <ellipse rx="1" cy="200" stroke-width="10" stroke="#ffffff" id="svg_051" cx="1010" ry="120" />
    <ellipse rx="1" cy="200" stroke-width="10" stroke="#ffffff" id="svg_052" cx="1030" ry="80"  />
    <ellipse rx="1" cy="200" stroke-width="10" stroke="#ffffff" id="svg_053" cx="1050" ry="100" />
    <ellipse rx="1" cy="200" stroke-width="10" stroke="#ffffff" id="svg_054" cx="1070" ry="140" />
    <ellipse rx="1" cy="200" stroke-width="10" stroke="#ffffff" id="svg_055" cx="1090" ry="100" />
    <ellipse rx="1" cy="200" stroke-width="10" stroke="#ffffff" id="svg_056" cx="1110" ry="60"  />
    <ellipse rx="1" cy="200" stroke-width="10" stroke="#ffffff" id="svg_057" cx="1130" ry="100" />
    <ellipse rx="1" cy="200" stroke-width="10" stroke="#ffffff" id="svg_058" cx="1150" ry="40"  />
    <ellipse rx="1" cy="200" stroke-width="10" stroke="#ffffff" id="svg_059" cx="1170" ry="100" />
    <ellipse rx="1" cy="200" stroke-width="10" stroke="#ffffff" id="svg_060" cx="1190" ry="140" />
    <ellipse rx="1" cy="200" stroke-width="10" stroke="#ffffff" id="svg_061" cx="1210" ry="180" />
    <ellipse rx="1" cy="200" stroke-width="10" stroke="#ffffff" id="svg_062" cx="1230" ry="140" />
    <ellipse rx="1" cy="200" stroke-width="10" stroke="#ffffff" id="svg_063" cx="1250" ry="160" />
    <ellipse rx="1" cy="200" stroke-width="10" stroke="#ffffff" id="svg_064" cx="1270" ry="60"  />
    <ellipse rx="1" cy="200" stroke-width="10" stroke="#ffffff" id="svg_065" cx="1290" ry="120" />
    <ellipse rx="1" cy="200" stroke-width="10" stroke="#ffffff" id="svg_066" cx="1310" ry="60"  />
    <ellipse rx="1" cy="200" stroke-width="10" stroke="#ffffff" id="svg_067" cx="1330" ry="100" />
    <ellipse rx="1" cy="200" stroke-width="10" stroke="#ffffff" id="svg_068" cx="1350" ry="140" />
    <ellipse rx="1" cy="200" stroke-width="10" stroke="#ffffff" id="svg_069" cx="1370" ry="80"  />
    <ellipse rx="1" cy="200" stroke-width="10" stroke="#ffffff" id="svg_070" cx="1390" ry="100" />
    <ellipse rx="1" cy="200" stroke-width="10" stroke="#ffffff" id="svg_071" cx="1410" ry="80"  />
    <ellipse rx="1" cy="200" stroke-width="10" stroke="#ffffff" id="svg_072" cx="1430" ry="60"  />
    <ellipse rx="1" cy="200" stroke-width="10" stroke="#ffffff" id="svg_073" cx="1450" ry="100" />
    <ellipse rx="1" cy="200" stroke-width="10" stroke="#ffffff" id="svg_074" cx="1470" ry="140" />
    <ellipse rx="1" cy="200" stroke-width="10" stroke="#ffffff" id="svg_075" cx="1490" ry="60"  />
    <ellipse rx="1" cy="200" stroke-width="10" stroke="#ffffff" id="svg_076" cx="1510" ry="140" />
    <ellipse rx="1" cy="200" stroke-width="10" stroke="#ffffff" id="svg_077" cx="1530" ry="180" />
    <ellipse rx="1" cy="200" stroke-width="10" stroke="#ffffff" id="svg_078" cx="1550" ry="100" />
    <ellipse rx="1" cy="200" stroke-width="10" stroke="#ffffff" id="svg_079" cx="1570" ry="140" />
    <ellipse rx="1" cy="200" stroke-width="10" stroke="#ffffff" id="svg_080" cx="1590" ry="60"  />
    <ellipse rx="1" cy="200" stroke-width="10" stroke="#ffffff" id="svg_081" cx="1610" ry="120" />
    <ellipse rx="1" cy="200" stroke-width="10" stroke="#ffffff" id="svg_082" cx="1630" ry="80"  />
    <ellipse rx="1" cy="200" stroke-width="10" stroke="#ffffff" id="svg_083" cx="1650" ry="100" />
    <ellipse rx="1" cy="200" stroke-width="10" stroke="#ffffff" id="svg_084" cx="1670" ry="140" />
    <ellipse rx="1" cy="200" stroke-width="10" stroke="#ffffff" id="svg_085" cx="1690" ry="100" />
    <ellipse rx="1" cy="200" stroke-width="10" stroke="#ffffff" id="svg_086" cx="1710" ry="60"  />
    <ellipse rx="1" cy="200" stroke-width="10" stroke="#ffffff" id="svg_087" cx="1730" ry="100" />
    <ellipse rx="1" cy="200" stroke-width="10" stroke="#ffffff" id="svg_088" cx="1750" ry="40"  />
    <ellipse rx="1" cy="200" stroke-width="10" stroke="#ffffff" id="svg_089" cx="1770" ry="100" />
    <ellipse rx="1" cy="200" stroke-width="10" stroke="#ffffff" id="svg_090" cx="1790" ry="180" />
    <ellipse rx="1" cy="200" stroke-width="10" stroke="#ffffff" id="svg_091" cx="1810" ry="100" />
    <ellipse rx="1" cy="200" stroke-width="10" stroke="#ffffff" id="svg_092" cx="1830" ry="140" />
    <ellipse rx="1" cy="200" stroke-width="10" stroke="#ffffff" id="svg_093" cx="1850" ry="120" />
    <ellipse rx="1" cy="200" stroke-width="10" stroke="#ffffff" id="svg_094" cx="1870" ry="60"  />
    <ellipse rx="1" cy="200" stroke-width="10" stroke="#ffffff" id="svg_095" cx="1890" ry="120" />
    <ellipse rx="1" cy="200" stroke-width="10" stroke="#ffffff" id="svg_096" cx="1910" ry="60"  />
    <ellipse rx="1" cy="200" stroke-width="10" stroke="#ffffff" id="svg_097" cx="1930" ry="100" />
    <ellipse rx="1" cy="200" stroke-width="10" stroke="#ffffff" id="svg_098" cx="1950" ry="80"  />
    <ellipse rx="1" cy="200" stroke-width="10" stroke="#ffffff" id="svg_099" cx="1970" ry="40"  />
    <ellipse rx="1" cy="200" stroke-width="10" stroke="#ffffff" id="svg_100" cx="1990" ry="20"  />
</svg>